<svg width="20" height="21" viewBox="0 0 20 21" fill="none" xmlns="http://www.w3.org/2000/svg">
<path d="M7.64592 13.833H2.50008C2.26397 13.833 2.06619 13.753 1.90675 13.593C1.7473 13.433 1.6673 13.2353 1.66675 12.9997C1.66675 12.7636 1.74675 12.5658 1.90675 12.4064C2.06675 12.2469 2.26453 12.1669 2.50008 12.1664H7.64592L6.08342 10.6039C5.93064 10.4511 5.85425 10.2603 5.85425 10.0314C5.85425 9.80248 5.93064 9.60443 6.08342 9.43721C6.25008 9.27054 6.44814 9.18721 6.67758 9.18721C6.90703 9.18721 7.1048 9.27054 7.27092 9.43721L10.2501 12.4164C10.3334 12.4997 10.3926 12.59 10.4276 12.6872C10.4626 12.7844 10.4798 12.8886 10.4792 12.9997C10.4792 13.1108 10.462 13.215 10.4276 13.3122C10.3931 13.4094 10.334 13.4997 10.2501 13.583L7.25008 16.583C7.08342 16.7497 6.88897 16.8297 6.66675 16.823C6.44453 16.8164 6.25008 16.7294 6.08342 16.5622C5.93064 16.3955 5.85092 16.2011 5.84425 15.9789C5.83758 15.7567 5.9173 15.5622 6.08342 15.3955L7.64592 13.833ZM12.3542 8.83304L13.9167 10.3955C14.0695 10.5483 14.1459 10.7394 14.1459 10.9689C14.1459 11.1983 14.0695 11.3961 13.9167 11.5622C13.7501 11.7289 13.5523 11.8122 13.3234 11.8122C13.0945 11.8122 12.8965 11.7289 12.7292 11.5622L9.75008 8.58304C9.66675 8.49971 9.60786 8.40943 9.57342 8.31221C9.53897 8.21499 9.52147 8.11082 9.52092 7.99971C9.52092 7.8886 9.53842 7.78443 9.57342 7.68721C9.60842 7.58999 9.6673 7.49971 9.75008 7.41637L12.7501 4.41637C12.9167 4.24971 13.1112 4.16999 13.3334 4.17721C13.5556 4.18443 13.7501 4.2711 13.9167 4.43721C14.0695 4.60387 14.1495 4.79832 14.1568 5.02054C14.164 5.24276 14.084 5.43721 13.9167 5.60387L12.3542 7.16637H17.5001C17.7362 7.16637 17.9342 7.24637 18.0942 7.40637C18.2542 7.56637 18.334 7.76415 18.3334 7.99971C18.3334 8.23582 18.2534 8.43387 18.0934 8.59387C17.9334 8.75387 17.7356 8.8336 17.5001 8.83304H12.3542Z" fill="#fff"/>
</svg>
