<svg width="32" height="32" viewBox="0 0 32 32" fill="none" xmlns="http://www.w3.org/2000/svg">
<path d="M15.2827 26.6673H5.33333C4.97971 26.6673 4.64057 26.5268 4.39052 26.2768C4.14048 26.0267 4 25.6876 4 25.334V10.6673C4 9.25283 4.5619 7.89628 5.5621 6.89608C6.56229 5.89589 7.91885 5.33398 9.33333 5.33398H22.6667C24.0812 5.33398 25.4377 5.89589 26.4379 6.89608C27.4381 7.89628 28 9.25283 28 10.6673V15.1807M9.33333 18.6673H13.3333M9.33333 13.334H17.3333" stroke="#7A7A7A" stroke-width="2" stroke-linecap="round" stroke-linejoin="round"/>
<path d="M22.0003 24.0007C23.8413 24.0007 25.3337 22.5083 25.3337 20.6673C25.3337 18.8264 23.8413 17.334 22.0003 17.334C20.1594 17.334 18.667 18.8264 18.667 20.6673C18.667 22.5083 20.1594 24.0007 22.0003 24.0007Z" stroke="#7A7A7A" stroke-width="2"/>
<path d="M24.667 23.334L28.667 27.334" stroke="#7A7A7A" stroke-width="2" stroke-linecap="round"/>
</svg>
