<svg width="32" height="32" viewBox="0 0 32 32" fill="none" xmlns="http://www.w3.org/2000/svg">
<path d="M21.9691 16.1514C24.704 16.1514 26.9326 13.7154 26.9326 10.7514C26.9326 7.82114 24.7154 5.5 21.9691 5.5C19.2457 5.5 17.0051 7.85543 17.0051 10.7743C17.0166 13.7269 19.2457 16.1514 21.9691 16.1514ZM8.73257 16.404C11.0994 16.404 13.0411 14.2783 13.0411 11.6703C13.0411 9.11943 11.1223 7.06286 8.73257 7.06286C6.36571 7.06286 4.41257 9.15429 4.424 11.6931C4.43543 14.2903 6.36571 16.404 8.73257 16.404ZM21.9691 14.4166C20.2914 14.4166 18.8549 12.808 18.8549 10.7743C18.8549 8.77429 20.2686 7.23543 21.9691 7.23543C23.6811 7.23543 25.0829 8.752 25.0829 10.7509C25.0829 12.7851 23.6697 14.4166 21.9691 14.4166ZM8.73257 14.692C7.33086 14.692 6.136 13.348 6.136 11.6931C6.136 10.0731 7.31886 8.77486 8.73257 8.77486C10.18 8.77486 11.3406 10.0503 11.3406 11.6703C11.3406 13.348 10.1457 14.692 8.73257 14.692ZM2.344 26.9406H11.364C10.812 26.6303 10.3869 25.9406 10.4674 25.24H2.05714C1.82743 25.24 1.71257 25.1486 1.71257 24.9297C1.71257 22.0806 4.964 19.4149 8.72171 19.4149C10.1691 19.4149 11.4674 19.7594 12.5823 20.4143C12.9519 19.9459 13.3895 19.5354 13.8806 19.1966C12.3983 18.2194 10.6177 17.7143 8.72171 17.7143C3.90686 17.7143 0 21.2069 0 25.0331C0 26.3086 0.781143 26.9406 2.344 26.9406ZM14.7531 26.9406H29.1851C31.092 26.9406 32 26.3663 32 25.1023C32 22.092 28.1966 17.7366 21.9691 17.7366C15.7297 17.7366 11.9269 22.092 11.9269 25.1023C11.9269 26.3663 12.8343 26.9406 14.7531 26.9406ZM14.2017 25.2057C13.9029 25.2057 13.7766 25.1257 13.7766 24.884C13.7766 22.9994 16.6949 19.4726 21.9691 19.4726C27.232 19.4726 30.1497 22.9994 30.1497 24.884C30.1497 25.1251 30.0354 25.2057 29.736 25.2057H14.2017Z" fill="#7A7A7A"/>
</svg>
