<svg width="32" height="32" viewBox="0 0 32 32" fill="none" xmlns="http://www.w3.org/2000/svg">
<path d="M16 2C8.26875 2 2 8.26875 2 16C2 23.7313 8.26875 30 16 30C23.7313 30 30 23.7313 30 16C30 8.26875 23.7313 2 16 2ZM16 27.625C9.58125 27.625 4.375 22.4188 4.375 16C4.375 9.58125 9.58125 4.375 16 4.375C22.4188 4.375 27.625 9.58125 27.625 16C27.625 22.4188 22.4188 27.625 16 27.625ZM17.4906 15.275L16.6969 15.0906V10.8938C17.8844 11.0563 18.6187 11.8 18.7437 12.7125C18.7594 12.8375 18.8656 12.9281 18.9906 12.9281H20.3937C20.5406 12.9281 20.6562 12.8 20.6437 12.6531C20.4531 10.7063 18.85 9.45625 16.7094 9.24063V8.21875C16.7094 8.08125 16.5969 7.96875 16.4594 7.96875H15.5813C15.4438 7.96875 15.3313 8.08125 15.3313 8.21875V9.25C13.1187 9.46562 11.3875 10.6875 11.3875 12.9688C11.3875 15.0813 12.9438 16.1 14.5781 16.4906L15.35 16.6875V21.1469C13.9688 20.9625 13.1938 20.225 13.0344 19.2313C13.0156 19.1125 12.9094 19.025 12.7875 19.025H11.3438C11.1969 19.025 11.0813 19.15 11.0938 19.2969C11.2344 21.0156 12.5375 22.5969 15.3188 22.8V23.7812C15.3188 23.9188 15.4313 24.0312 15.5688 24.0312H16.4562C16.5937 24.0312 16.7062 23.9188 16.7062 23.7781L16.7 22.7875C19.1469 22.5719 20.8969 21.2625 20.8969 18.9125C20.8938 16.7438 19.5156 15.775 17.4906 15.275ZM15.3469 14.7688C15.1719 14.7188 15.025 14.6719 14.8781 14.6125C13.8219 14.2312 13.3313 13.6156 13.3313 12.8219C13.3313 11.6875 14.1906 11.0406 15.3469 10.8938V14.7688ZM16.6969 21.1562V16.9781C16.7937 17.0062 16.8812 17.0281 16.9719 17.0469C18.45 17.4969 18.9469 18.1219 18.9469 19.0812C18.9469 20.3031 18.0281 21.0375 16.6969 21.1562Z" fill="white"/>
</svg>
